<?xml version="1.0" encoding="utf-8"?>
<!-- Generator: Adobe Illustrator 21.1.0, SVG Export Plug-In . SVG Version: 6.00 Build 0)  -->
<svg version="1.1" id="Layer_1" xmlns="http://www.w3.org/2000/svg" xmlns:xlink="http://www.w3.org/1999/xlink" x="0px" y="0px"
	 viewBox="0 0 73.6 90" style="enable-background:new 0 0 73.6 90;" xml:space="preserve">
<style type="text/css">
	.st0{fill:#1EFFE3;}
</style>
<g>
	<path class="st0" d="M36.8,0C16.5,0,0,16.5,0,36.8v46.5c0,1.8,0.8,3.6,2,4.7c1.2,1.1,2.8,1.8,4.5,1.8c1.6,0,3.3-0.6,4.6-1.9l0,0
		l1.4-1.4l0,0c0.7-0.7,1.6-1,2.5-1c0.9,0,1.8,0.3,2.5,1.1c2.3,2.3,5.3,3.4,8.3,3.4c3,0,6-1.2,8.3-3.4c0.7-0.7,1.6-1,2.5-1.1
		c0.9,0,1.8,0.3,2.5,1.1c2.3,2.3,5.3,3.4,8.3,3.4c3,0,6-1.2,8.3-3.4l0,0c0.7-0.7,1.6-1,2.5-1c0.9,0,1.8,0.3,2.5,1.1l0.1,0.1l1.7,1.6
		c1.2,1.2,2.9,1.8,4.5,1.8c1.7,0,3.2-0.6,4.5-1.8c1.2-1.1,2.1-2.9,2-4.7V36.8C73.6,16.5,57.1,0,36.8,0z M65.5,79.7
		c-2.1-1.6-4.6-2.4-7.1-2.4c-3,0-6,1.2-8.3,3.5l0,0c-0.7,0.7-1.6,1-2.5,1.1c-0.9,0-1.8-0.3-2.5-1c-2.3-2.3-5.3-3.5-8.3-3.4
		c-3,0-6,1.2-8.3,3.5c-0.7,0.7-1.6,1-2.5,1c-0.9,0-1.8-0.3-2.5-1C21,78.5,18,77.3,15,77.3c-2.4,0-4.8,0.8-6.8,2.2V36.8
		c0-7.9,3.2-15.1,8.4-20.2c5.2-5.2,12.3-8.4,20.2-8.4c7.9,0,15,3.2,20.2,8.4c5.2,5.2,8.4,12.3,8.4,20.2L65.5,79.7L65.5,79.7z"/>
	<circle class="st0" cx="25" cy="42.8" r="6.1"/>
	<path class="st0" d="M48.6,36.7c-3.4,0-6.1,2.8-6.1,6.1c0,3.4,2.7,6.1,6.1,6.1c3.4,0,6.1-2.7,6.1-6.1C54.7,39.4,52,36.7,48.6,36.7z
		"/>
</g>
</svg>
